<?xml version="1.0" encoding="utf-8" ?>
<svg xmlns="http://www.w3.org/2000/svg" xmlns:xlink="http://www.w3.org/1999/xlink" width="3285" height="3285">
	<clipPath id="cl_4">
		<rect y="-0.00012207031" width="3285" height="3285"/>
	</clipPath>
	<g clip-path="url(#cl_4)">
		<path fill="#EA3839" transform="matrix(1.14312 0 0 1.14312 -582.871 -476.251)" d="M1956.97 813.1C2020.48 809.448 2085.72 812.195 2149.35 813.385C2475.99 819.495 2808.22 902.651 3041.67 1145.11C3267.42 1379.57 3340.76 1675.31 3334.38 1993.67C3329.44 2240.04 3253.24 2475.36 3072.83 2648.46C2903.42 2811.01 2676.3 2893.29 2447.09 2925.86C2408.38 2931.36 2369.93 2934.16 2331.05 2937.56C2261.04 2943.67 2192.23 2949.14 2121.82 2950.11C2050.08 2951.09 1979.14 2947.83 1907.5 2946.4C1868.46 2946.07 1829.43 2940.59 1790.52 2937.86C1444.37 2913.57 1090.79 2803.23 896.935 2493.65C862.864 2439.24 836.82 2383.19 815.667 2322.66C811.814 2311.63 790.393 2237.69 790.299 2237.57C778.454 2222.05 700.372 2245.91 674.924 2225.14C669.152 2220.43 665.585 2213.77 663.972 2206.57C658.98 2184.3 661.273 2159.79 661.686 2137.1C662.368 2099.64 664.095 2061.96 661.836 2024.55C635.106 2024.5 606.806 2030.4 580.313 2026.45C564.561 2024.1 555.797 2018.54 546.129 2006.08C542.873 1981.38 541.309 1936.73 542.547 1911.74C543.158 1899.39 546.108 1886.83 555.962 1878.53C577.345 1860.55 635.759 1867.96 662.556 1871.05C662.48 1829.17 656.791 1730.35 664.758 1695.29C666.267 1688.65 669.372 1682.52 674.362 1677.82C695.853 1657.58 746.334 1668.82 774.196 1667.76C778.714 1667.58 784.901 1666.67 787.799 1662.74C794.424 1653.76 796.649 1626.95 799.368 1614.96C807.6 1578.65 817.411 1543.47 829.545 1508.28Q831.696 1501.98 833.932 1495.72Q836.169 1489.45 838.489 1483.21Q840.81 1476.98 843.215 1470.77Q845.62 1464.57 848.109 1458.4Q850.598 1452.23 853.17 1446.09Q855.742 1439.95 858.397 1433.85Q861.052 1427.75 863.789 1421.68Q866.526 1415.62 869.345 1409.59Q872.164 1403.56 875.064 1397.58Q877.965 1391.59 880.946 1385.64Q883.927 1379.69 886.988 1373.78Q890.049 1367.87 893.19 1362.01Q896.331 1356.14 899.551 1350.32Q902.772 1344.49 906.07 1338.72Q909.369 1332.94 912.745 1327.2Q916.122 1321.47 919.575 1315.78Q923.029 1310.09 926.56 1304.45Q930.09 1298.81 933.697 1293.22Q937.303 1287.63 940.985 1282.09Q944.667 1276.54 948.423 1271.05Q952.179 1265.56 956.01 1260.12Q959.84 1254.68 963.744 1249.29Q967.648 1243.9 971.624 1238.56Q975.6 1233.23 979.648 1227.95Q983.696 1222.67 987.816 1217.44Q991.935 1212.22 996.124 1207.05Q1000.31 1201.88 1004.57 1196.76Q1008.83 1191.65 1013.16 1186.6Q1017.49 1181.54 1021.88 1176.55Q1026.28 1171.55 1030.74 1166.62Q1035.21 1161.68 1039.74 1156.81Q1044.26 1151.93 1048.86 1147.12C1287.4 901.783 1623.79 817.911 1956.97 813.1ZM2124.5 2769.9C2204.49 2769.86 2281.04 2762.88 2360.3 2753.35C2401.1 2748.45 2441.46 2744.29 2481.97 2736.86C2657.86 2704.59 2837.49 2636.04 2965.73 2507.34C3067.14 2405.56 3126.39 2266.11 3145.07 2124.71C3152.62 2067.56 3153.7 2008.51 3153.52 1950.97C3153.33 1892.39 3152.64 1832.22 3145.6 1774.03C3122.37 1581.85 3041.75 1392.6 2903.37 1255.29C2675.33 1029.02 2346.54 988.291 2040 990.007Q2006.77 990.315 1973.54 991.055C1921.54 992.99 1869.63 994.111 1817.77 999.03C1636.77 1016.2 1442.37 1064.9 1291.34 1170.33C1245.05 1202.65 1203.56 1240.71 1165.22 1282.07Q1156.18 1291.98 1147.49 1302.2Q1138.8 1312.42 1130.48 1322.95Q1122.16 1333.47 1114.21 1344.27Q1106.26 1355.08 1098.7 1366.16Q1091.13 1377.24 1083.96 1388.58Q1076.79 1399.92 1070.03 1411.5Q1063.26 1423.09 1056.91 1434.9Q1050.55 1446.72 1044.62 1458.75C954.894 1636.61 936.258 1813.19 943.267 2009.62C950.107 2201.34 1005.14 2391.55 1150.38 2525.2C1349.32 2708.27 1668.23 2758.88 1929.01 2769.26C1993.9 2771.84 2059.54 2770.17 2124.5 2769.9Z"/>
		<path fill="#EA3839" transform="matrix(1.14312 0 0 1.14312 -582.871 -476.251)" d="M1572.66 1662.69C1575.48 1662.44 1578.17 1662.24 1581 1662.23Q1584.44 1662.19 1587.88 1662.23Q1591.32 1662.28 1594.76 1662.41Q1598.2 1662.55 1601.63 1662.77Q1605.06 1662.99 1608.49 1663.3Q1611.92 1663.6 1615.34 1664Q1618.75 1664.39 1622.16 1664.87Q1625.57 1665.35 1628.96 1665.92Q1632.35 1666.49 1635.73 1667.14Q1639.11 1667.79 1642.47 1668.53Q1645.83 1669.27 1649.17 1670.09Q1652.51 1670.91 1655.83 1671.82Q1659.15 1672.72 1662.45 1673.72Q1665.74 1674.71 1669.01 1675.78Q1672.28 1676.85 1675.52 1678.01Q1678.76 1679.17 1681.97 1680.41Q1685.18 1681.64 1688.36 1682.96Q1691.54 1684.28 1694.68 1685.68Q1697.82 1687.08 1700.93 1688.56Q1704.04 1690.04 1707.1 1691.59Q1710.17 1693.15 1713.2 1694.78Q1716.23 1696.42 1719.21 1698.13Q1722.2 1699.84 1725.14 1701.62Q1728.08 1703.41 1730.98 1705.26Q1733.87 1707.12 1736.72 1709.06Q1739.57 1710.99 1742.36 1712.99Q1745.16 1714.99 1747.91 1717.07Q1750.65 1719.14 1753.35 1721.28Q1756.04 1723.42 1758.67 1725.63Q1761.31 1727.84 1763.89 1730.12Q1766.47 1732.4 1768.99 1734.74Q1771.52 1737.08 1773.98 1739.48Q1776.44 1741.88 1778.84 1744.35C1818.03 1784.01 1847.06 1844.2 1846.58 1900.67C1846.43 1917.51 1842.93 1936.92 1830.02 1948.92C1817.79 1960.28 1798.09 1963.15 1782.07 1961.64C1736.06 1957.28 1732.99 1913.12 1720.79 1878.84Q1718.89 1873.51 1716.55 1868.37Q1714.21 1863.22 1711.44 1858.29Q1708.68 1853.36 1705.51 1848.67Q1702.34 1843.99 1698.79 1839.59C1677.82 1813.58 1641.97 1792.06 1608.55 1788.73C1607.82 1788.65 1607.09 1788.6 1606.36 1788.54C1589.19 1785.67 1570.18 1786.58 1553.17 1790.23C1508.17 1799.87 1470.49 1834.93 1455.52 1878.1C1448.54 1898.25 1445.45 1920.94 1433.34 1938.86C1425.32 1950.73 1413.46 1959.81 1399.11 1962.18C1383.45 1964.76 1364.84 1959.42 1352.02 1950.32C1339.07 1941.13 1331.91 1927.12 1329.91 1911.57C1322.62 1855.11 1354.56 1796.17 1388.68 1753.85C1434.93 1696.49 1501.03 1670.49 1572.66 1662.69Z"/>
		<path fill="#EA3839" transform="matrix(1.14312 0 0 1.14312 -582.871 -476.251)" d="M2492.36 1662.84Q2500.38 1662.19 2508.42 1662.21Q2516.47 1662.23 2524.48 1662.92C2598.17 1669.38 2665.62 1703.08 2713.19 1760.15C2744.7 1797.95 2774.47 1857.99 2768.57 1908.62C2766.75 1924.18 2760.38 1939.92 2747.27 1949.3C2733.7 1959.01 2713.91 1964.93 2697.27 1961.91C2657.66 1954.74 2652.86 1910.65 2641.35 1879.67Q2639.5 1874.73 2637.3 1869.93Q2635.11 1865.13 2632.59 1860.5Q2630.07 1855.86 2627.22 1851.41Q2624.38 1846.97 2621.24 1842.73C2596.21 1809.2 2562.24 1792.62 2521.66 1786.53C2506.66 1785.68 2490.55 1786.86 2475.83 1789.94Q2473.67 1790.4 2471.52 1790.92Q2469.37 1791.45 2467.24 1792.04Q2465.11 1792.64 2462.99 1793.3Q2460.88 1793.97 2458.8 1794.7Q2456.71 1795.43 2454.64 1796.23Q2452.58 1797.02 2450.54 1797.89Q2448.51 1798.75 2446.5 1799.68Q2444.49 1800.61 2442.51 1801.6Q2440.54 1802.6 2438.59 1803.65Q2436.65 1804.71 2434.74 1805.83Q2432.83 1806.95 2430.96 1808.13Q2429.09 1809.31 2427.26 1810.55Q2425.42 1811.79 2423.63 1813.08Q2421.84 1814.38 2420.09 1815.74Q2418.34 1817.09 2416.64 1818.5Q2414.93 1819.91 2413.27 1821.38Q2411.62 1822.84 2410.01 1824.36Q2408.4 1825.88 2406.83 1827.44Q2405.27 1829.01 2403.77 1830.63Q2402.26 1832.25 2400.8 1833.91Q2399.34 1835.58 2397.94 1837.29Q2396.54 1839 2395.19 1840.76Q2393.85 1842.51 2392.56 1844.31Q2391.27 1846.11 2390.04 1847.95Q2388.81 1849.79 2387.64 1851.67Q2386.47 1853.55 2385.36 1855.46Q2384.25 1857.37 2383.21 1859.32Q2382.16 1861.27 2381.17 1863.25Q2380.19 1865.24 2379.27 1867.25Q2378.35 1869.26 2377.5 1871.3Q2376.65 1873.34 2375.86 1875.41Q2375.07 1877.48 2374.35 1879.57C2367.77 1899.13 2364.79 1920.68 2353 1938.03C2345.08 1949.68 2333.64 1958.26 2319.63 1960.83C2302.24 1964.02 2281.09 1959.26 2266.84 1948.77C2255.78 1940.63 2249.41 1928.47 2247.58 1914.99C2241.29 1868.6 2273.49 1799.96 2301.61 1764.1C2350.91 1701.26 2414.12 1672.04 2492.36 1662.84Z"/>
	</g>
</svg>
